# xmcd
#
# Track frame offsets: 
#        150
#        15105
#        28350
#        45807
#        57780
#        73047
#        85297
#        99787
#        112060
#        124382
#
# Disc length: 1835 seconds
#
# Revision: 2
# Processed by: cddbd v1.4PL0 Copyright (c) Steve Scherf et al.
# Submitted via: ExactAudioCopy v0.90b3
#
DISCID=7807290a
DTITLE=B.J. Thomas - Peace In The Valley
DYEAR=1900
DGENRE=Country
TTITLE0=Peace In The Valley
TTITLE1=Rock Of Ages
TTITLE2=What A Friend We Have In Jesus
TTITLE3=Love Lifted Me
TTITLE4=Precious Lord, Take My Hand
TTITLE5=I'll Fly Away
TTITLE6=Where No One Stands Alone
TTITLE7=It Is No Secret
TTITLE8=Family Bible
TTITLE9=Softly And Tenderly
EXTD=
EXTT0=
EXTT1=
EXTT2=
EXTT3=
EXTT4=
EXTT5=
EXTT6=
EXTT7=
EXTT8=
EXTT9=
PLAYORDER=
